<svg width="48" height="48" viewBox="0 0 48 48" fill="none" xmlns="http://www.w3.org/2000/svg">
<g id="login">
<path id="Vector" d="M40 24C40 23.4696 39.7893 22.9609 39.4142 22.5858C39.0391 22.2107 38.5304 22 38 22H22.82L27.42 17.42C27.6065 17.2335 27.7544 17.0121 27.8553 16.7685C27.9562 16.5249 28.0082 16.2637 28.0082 16C28.0082 15.7363 27.9562 15.4751 27.8553 15.2315C27.7544 14.9879 27.6065 14.7665 27.42 14.58C27.2335 14.3935 27.0121 14.2456 26.7685 14.1447C26.5249 14.0438 26.2637 13.9918 26 13.9918C25.7363 13.9918 25.4751 14.0438 25.2315 14.1447C24.9879 14.2456 24.7665 14.3935 24.58 14.58L16.58 22.58C16.3979 22.7702 16.2552 22.9945 16.16 23.24C15.96 23.7269 15.96 24.2731 16.16 24.76C16.2552 25.0055 16.3979 25.2298 16.58 25.42L24.58 33.42C24.7659 33.6075 24.9871 33.7562 25.2308 33.8578C25.4746 33.9593 25.736 34.0116 26 34.0116C26.264 34.0116 26.5254 33.9593 26.7692 33.8578C27.0129 33.7562 27.2341 33.6075 27.42 33.42C27.6075 33.2341 27.7562 33.0129 27.8578 32.7692C27.9593 32.5254 28.0116 32.264 28.0116 32C28.0116 31.736 27.9593 31.4746 27.8578 31.2308C27.7562 30.9871 27.6075 30.7659 27.42 30.58L22.82 26H38C38.5304 26 39.0391 25.7893 39.4142 25.4142C39.7893 25.0391 40 24.5304 40 24ZM34 4H14C12.4087 4 10.8826 4.63214 9.75736 5.75736C8.63214 6.88258 8 8.4087 8 10V38C8 39.5913 8.63214 41.1174 9.75736 42.2426C10.8826 43.3679 12.4087 44 14 44H34C35.5913 44 37.1174 43.3679 38.2426 42.2426C39.3679 41.1174 40 39.5913 40 38V32C40 31.4696 39.7893 30.9609 39.4142 30.5858C39.0391 30.2107 38.5304 30 38 30C37.4696 30 36.9609 30.2107 36.5858 30.5858C36.2107 30.9609 36 31.4696 36 32V38C36 38.5304 35.7893 39.0391 35.4142 39.4142C35.0391 39.7893 34.5304 40 34 40H14C13.4696 40 12.9609 39.7893 12.5858 39.4142C12.2107 39.0391 12 38.5304 12 38V10C12 9.46957 12.2107 8.96086 12.5858 8.58579C12.9609 8.21071 13.4696 8 14 8H34C34.5304 8 35.0391 8.21071 35.4142 8.58579C35.7893 8.96086 36 9.46957 36 10V16C36 16.5304 36.2107 17.0391 36.5858 17.4142C36.9609 17.7893 37.4696 18 38 18C38.5304 18 39.0391 17.7893 39.4142 17.4142C39.7893 17.0391 40 16.5304 40 16V10C40 8.4087 39.3679 6.88258 38.2426 5.75736C37.1174 4.63214 35.5913 4 34 4Z" fill="#000000"/>
</g>
</svg>
